<?xml version="1.0" encoding="UTF-8"?>
<svg width="9px" height="9px" viewBox="0 0 9 9" version="1.1" xmlns="http://www.w3.org/2000/svg" xmlns:xlink="http://www.w3.org/1999/xlink">
    <!-- Generator: Sketch 45.1 (43504) - http://www.bohemiancoding.com/sketch -->
    <title>Group 2</title>
    <desc>Created with Sketch.</desc>
    <defs></defs>
    <g id="Page-1" stroke="none" stroke-width="1" fill="none" fill-rule="evenodd">
        <g id="登录-错误1-" transform="translate(-412.000000, -16.000000)" fill="#FFFFFF">
            <g id="注册" transform="translate(-1.000000, 0.000000)">
                <g id="Group-2" transform="translate(413.000000, 16.000000)">
                    <path d="M7.27428469,6.09589548 L8.53279339,7.35440418 L8.53279339,7.35440418 C8.85636598,7.67797677 8.85636598,8.2025916 8.53279339,8.52616419 L8.53279339,8.52616419 C8.2092208,8.84973678 7.68460597,8.84973678 7.36103338,8.52616419 L1.95096552,3.11609633 C1.91904848,3.08417929 1.89027971,3.05030615 1.86465923,3.01486282 L1.13369112,2.2838947 L1.13369112,2.2838947 C0.810118526,1.96032211 0.810118526,1.43570728 1.13369112,1.11213469 L1.13369112,1.11213469 L1.13369112,1.11213469 C1.45726371,0.788562099 1.98187854,0.788562099 2.30545113,1.11213469 L2.30545113,1.11213469 L7.1879784,5.99466196 L7.1879784,5.99466196 C7.21989545,6.02657901 7.24866421,6.06045214 7.27428469,6.09589548 Z" id="Combined-Shape"></path>
                    <path d="M5.73744611,5.22336631 L2.29345683,8.59511155 C1.96876972,8.91298774 1.45137901,8.90383195 1.13783232,8.57466152 C0.824285624,8.24549108 0.833316713,7.72095616 1.15800382,7.40307997 L4.6019931,4.03133473 L7.5093153,1.18499901 C7.8340024,0.867122816 8.35139312,0.876278608 8.66493981,1.20544904 C8.9784865,1.53461947 8.96945541,2.0591544 8.64476831,2.37703059 L5.73744611,5.22336631 Z" id="Combined-Shape-Copy"></path>
                </g>
            </g>
        </g>
    </g>
</svg>